<?xml version="1.0" encoding="utf-8"?>
<svg version="1.1" id="places-logo-large" xmlns="http://www.w3.org/2000/svg" xmlns:xlink="http://www.w3.org/1999/xlink" x="0px" y="0px"
	 viewBox="0 0 428 169.72" style="enable-background:new 0 0 428 169.72;" xml:space="preserve">
<g>
	<path d="M71,16.5c-0.28,0-0.5,0.22-0.5,0.5v13c0,0.28,0.22,0.5,0.5,0.5s0.5-0.22,0.5-0.5V17C71.5,16.72,71.28,16.5,71,16.5z"/>
	<path d="M93,16.5c-0.28,0-0.5,0.22-0.5,0.5v13c0,0.28,0.22,0.5,0.5,0.5s0.5-0.22,0.5-0.5V17C93.5,16.72,93.28,16.5,93,16.5z"/>
	<path d="M251.66,95.36c-3.15-2.43-7.25-3.65-12.29-3.65h-24.78v2.71c0.69,0.05,1.51,0.15,2.47,0.29c0.96,0.14,1.92,0.38,2.89,0.71
		c0.94,0.36,1.54,0.89,1.8,1.61c0.25,0.71,0.38,1.52,0.38,2.41v39.16c0,0.99-0.17,1.81-0.52,2.45c-0.34,0.64-0.9,1.12-1.66,1.45
		c-0.46,0.2-1.27,0.37-2.43,0.5c-0.92,0.1-1.67,0.18-2.24,0.23c-0.23-0.14-0.49-0.22-0.77-0.22h-32.89
		c-1.59-5.3-8.45-29.82-6.04-49.47c1.19,0.78,2.83,1.47,4.93,1.47c5.36,0,8.45-1.62,8.5-4.43c0.26,0.03,0.6,0.08,0.89,0.12
		c2.71,0.42,7.74,1.19,14.52-4c5.72-4.37,8.74-9.26,8.99-14.52c0.33-6.84-4.17-12.01-5.51-13.41c-2.3-12.11-7.08-16.91-10.49-19.47
		c-3.78-2.84-5.03-4.16-5.94-5.13c-1.71-1.81-2.41-2.38-10.33-6.03c-9-4.15-12.82-2.43-16.51-0.76c-1.85,0.83-3.59,1.62-6.11,1.62
		c-7.27,0-10.83,5.7-11.98,8.02c-5.59,0.25-7.08,2.64-8.64,5.16c-0.66,1.07-1.35,2.17-2.44,3.26c-3.36,3.36-3.63,9.51-3.54,12.51
		c-0.28,0.06-0.59,0.16-0.91,0.3c-2.46,1.1-4.46,4.42-5.94,9.86c-1.45,5.32-0.02,11.35,3.94,16.52c3.95,5.17,9.51,8.37,14.51,8.37
		c6.33,0,8.21-1.44,9.88-2.72c0.77-0.58,1.37-1.05,2.48-1.33c2.2-0.55,2.95,1.13,3.15,1.81c0.1,1.39,0.91,13.15-0.01,31.66
		c-0.79,15.88-4.13,19.83-4.96,20.58H112V1.5c0-0.83-0.67-1.5-1.5-1.5h-57C52.67,0,52,0.67,52,1.5V143H1.5c-0.83,0-1.5,0.67-1.5,1.5
		s0.67,1.5,1.5,1.5h52c0.83,0,1.5-0.67,1.5-1.5V3h54v141.5c0,0.83,0.67,1.5,1.5,1.5h44c0.19,0,0.38-0.04,0.56-0.11
		c0.98-0.39,5.94-3.37,6.94-23.32c0.99-19.87,0.01-32.08,0-32.2c-0.01-0.08-0.02-0.16-0.04-0.24c-0.55-2.19-2.82-5.09-6.82-4.09
		c-1.72,0.43-2.71,1.19-3.58,1.85c-1.35,1.03-2.75,2.1-8.06,2.1c-4.03,0-8.79-2.82-12.13-7.2c-3.38-4.43-4.63-9.5-3.42-13.91
		c1.62-5.95,3.43-7.47,4.14-7.84c0.36-0.19,0.61-0.2,0.71-0.2c0.03,0,0.04,0,0.04,0c0.48,0.33,1.02,0.29,1.52-0.01
		c0.5-0.3,0.7-0.92,0.63-1.5c-0.25-2.31-0.28-8.92,2.57-11.77c1.34-1.34,2.15-2.64,2.86-3.8c1.51-2.43,2.34-3.76,7.08-3.76
		c0.62,0,1.18-0.39,1.4-0.97c0.11-0.29,2.76-7.03,9.6-7.03c3.17,0,5.39-1,7.35-1.89c3.36-1.52,6.27-2.83,14.02,0.75
		c7.7,3.55,8.09,3.97,9.41,5.37c0.93,0.99,2.33,2.48,6.32,5.47c3.05,2.29,7.35,6.65,9.42,18.07c0.06,0.32,0.22,0.61,0.45,0.83
		c0.05,0.05,5.25,4.99,4.93,11.46c-0.22,4.33-2.85,8.45-7.82,12.26c-5.77,4.41-9.82,3.79-12.25,3.42c-1.35-0.21-2.52-0.39-3.45,0.42
		C186,88.91,186,90.11,186,90.5c0,0.52-1.61,1.5-5.5,1.5c-3.11,0-4.69-2.25-4.75-2.33c-0.34-0.51-0.96-0.76-1.56-0.64
		c-0.6,0.13-1.06,0.61-1.17,1.21c-4.02,23.1,5.64,53.44,6.05,54.72c0.2,0.62,0.78,1.04,1.43,1.04h34c0.12,0,0.24-0.02,0.35-0.05
		v0.02h23.29v-2.71c-0.97-0.03-2.03-0.12-3.19-0.27c-1.16-0.15-1.97-0.32-2.43-0.5c-0.92-0.36-1.52-0.87-1.82-1.55
		s-0.44-1.46-0.44-2.35v-16.44h6.08c2.6,0,5.06-0.33,7.38-0.99c2.32-0.66,4.45-1.71,6.39-3.14c1.96-1.43,3.5-3.23,4.61-5.41
		c1.11-2.18,1.66-4.68,1.66-7.51C256.38,101.04,254.81,97.8,251.66,95.36z M246.48,110.54c-0.28,1.31-0.85,2.58-1.72,3.8
		c-0.87,1.28-2.16,2.34-3.88,3.19s-3.96,1.28-6.71,1.28h-3.9V94.84h5.39c2.17,0,3.98,0.33,5.43,0.99c1.45,0.66,2.63,1.59,3.52,2.79
		c0.84,1.12,1.43,2.43,1.78,3.94c0.34,1.5,0.52,2.98,0.52,4.44C246.9,108.05,246.76,109.23,246.48,110.54z"/>
	<path d="M275.77,142.61c-0.74-0.31-1.27-0.75-1.61-1.32c-0.33-0.57-0.5-1.31-0.5-2.2V87.35l-0.54-0.57l-14.19,0.84v2.45
		c0.74,0.05,1.72,0.21,2.94,0.46s2.07,0.54,2.52,0.84c0.64,0.46,1.15,1.09,1.55,1.89c0.39,0.8,0.59,1.67,0.59,2.58v43.7
		c0,0.92-0.18,1.67-0.54,2.24c-0.36,0.57-0.89,0.98-1.61,1.21c-0.43,0.13-0.98,0.22-1.64,0.29c-0.66,0.06-1.29,0.12-1.87,0.17v2.52
		h18.39v-2.52c-0.69-0.05-1.31-0.14-1.85-0.27C276.88,143.05,276.33,142.86,275.77,142.61z"/>
	<path d="M315.38,142.41c-0.71-0.41-1.24-0.9-1.59-1.49c-0.34-0.59-0.52-1.38-0.52-2.37c0-3.34,0.04-6.42,0.12-9.24
		c0.08-2.82,0.11-6.05,0.11-9.69c0-2.55-0.34-4.63-1.01-6.25c-0.68-1.62-1.66-2.9-2.96-3.84c-1.3-0.97-2.75-1.6-4.34-1.89
		c-1.59-0.29-3.46-0.44-5.6-0.44c-1.55,0-3.15,0.25-4.78,0.75c-1.63,0.5-3.02,1.1-4.17,1.82c-1.33,0.84-2.4,1.8-3.23,2.87
		c-0.83,1.07-1.24,2.19-1.24,3.37c0,1.12,0.3,2.14,0.9,3.04c0.6,0.91,1.54,1.36,2.81,1.36c1.43,0,2.54-0.37,3.35-1.11
		c0.8-0.74,1.2-1.55,1.2-2.45c0-0.84-0.12-1.76-0.36-2.75s-0.36-1.75-0.36-2.26c0.41-0.43,1.12-0.85,2.12-1.24
		c1.01-0.39,2.1-0.59,3.27-0.59c1.71,0,3.03,0.35,3.96,1.05s1.65,1.52,2.16,2.47c0.46,0.84,0.76,1.73,0.9,2.68
		c0.14,0.94,0.21,1.58,0.21,1.91v3.79c-1.22,0.66-3.59,1.58-7.09,2.75c-3.5,1.17-5.83,1.98-6.98,2.41c-0.92,0.36-1.9,0.84-2.94,1.43
		c-1.05,0.6-1.89,1.28-2.52,2.05c-0.82,0.92-1.43,1.95-1.84,3.1c-0.41,1.15-0.61,2.45-0.61,3.9c0,2.8,0.91,5.07,2.73,6.81
		s4.15,2.6,6.98,2.6c2.68,0,4.96-0.48,6.86-1.45s3.68-2.37,5.33-4.21h0.23c0.33,1.78,1.09,3.14,2.27,4.07s2.77,1.4,4.76,1.4
		c1.15,0,2.17-0.13,3.08-0.4c0.9-0.27,1.96-0.62,3.15-1.05v-2.45c-0.87,0-1.71-0.01-2.54-0.04
		C316.37,142.77,315.77,142.64,315.38,142.41z M306.17,138.31c-0.94,1.2-2.1,2.24-3.48,3.12s-2.97,1.32-4.78,1.32
		c-1.71,0-3.12-0.5-4.23-1.49c-1.11-1-1.66-2.56-1.66-4.68c0-1.63,0.37-3.05,1.11-4.23c0.74-1.19,1.75-2.22,3.02-3.08
		c1.4-0.92,2.92-1.69,4.55-2.3c1.63-0.61,3.53-1.24,5.7-1.88L306.17,138.31z"/>
	<path d="M349.03,140.99c-1.67,1.2-3.74,1.81-6.21,1.81c-3.41,0-6.17-1.5-8.27-4.49c-2.1-3-3.15-6.86-3.15-11.61
		c0-3.01,0.29-5.6,0.88-7.76c0.58-2.17,1.35-3.89,2.29-5.16c1.04-1.4,2.12-2.36,3.22-2.89c1.11-0.52,2.27-0.78,3.49-0.78
		c1.04,0,2.01,0.13,2.92,0.4c0.9,0.27,1.58,0.79,2.04,1.58c-0.05,0.56-0.23,1.44-0.54,2.65c-0.31,1.21-0.46,2.38-0.46,3.53
		c0,0.94,0.41,1.79,1.24,2.55c0.83,0.76,2,1.14,3.5,1.14c1.4,0,2.41-0.49,3.02-1.47c0.61-0.98,0.92-2.11,0.92-3.38
		c0-3.06-1.16-5.47-3.48-7.25c-2.32-1.77-5.33-2.66-9.02-2.66c-2.68,0-5.15,0.55-7.42,1.66c-2.27,1.11-4.16,2.57-5.66,4.38
		c-1.58,1.89-2.79,3.98-3.61,6.29c-0.83,2.31-1.24,4.79-1.24,7.44c0,6.09,1.54,10.95,4.63,14.57s7.35,5.43,12.81,5.43
		c2.93,0,5.77-0.88,8.53-2.64s4.97-4.14,6.65-7.15l-2.44-1.61C352.24,137.98,350.69,139.79,349.03,140.99z"/>
	<path d="M385.11,141.2c-1.64,1.06-3.6,1.6-5.87,1.6c-2.22,0-4.13-0.43-5.74-1.28c-1.61-0.86-2.91-2.02-3.9-3.51
		c-1.02-1.53-1.77-3.31-2.24-5.33s-0.71-4.27-0.71-6.75h24.97v-2.52c0-2.27-0.29-4.37-0.86-6.31c-0.57-1.94-1.45-3.62-2.62-5.05
		c-1.22-1.5-2.82-2.69-4.78-3.56c-1.96-0.87-4.32-1.3-7.07-1.3c-2.68,0-5.09,0.55-7.25,1.66s-3.96,2.57-5.41,4.38
		c-1.5,1.89-2.64,4.01-3.42,6.37c-0.78,2.36-1.17,4.76-1.17,7.21c0,2.73,0.36,5.32,1.09,7.76s1.83,4.59,3.31,6.42
		c1.48,1.83,3.36,3.29,5.64,4.36c2.28,1.07,4.94,1.61,7.97,1.61c3.44,0,6.49-0.89,9.14-2.68s4.77-4.18,6.35-7.19l-2.68-1.64
		C388.35,138.22,386.76,140.14,385.11,141.2z M369.55,113.44c1.77-2.22,4-3.33,6.67-3.33c1.61,0,2.92,0.37,3.94,1.11
		s1.82,1.69,2.41,2.86c0.54,1.09,0.92,2.45,1.17,4.08c0.24,1.63,0.36,3.15,0.36,4.57h-17.44
		C366.82,118.76,367.78,115.66,369.55,113.44z"/>
	<path d="M424.21,130.67c-0.56-1.2-1.36-2.26-2.41-3.17c-0.97-0.87-2.2-1.66-3.69-2.37c-1.49-0.71-3.08-1.34-4.76-1.87
		c-1.71-0.56-3.14-1.06-4.3-1.51c-1.16-0.45-2.12-0.92-2.89-1.43c-0.79-0.54-1.38-1.19-1.78-1.95c-0.4-0.77-0.59-1.72-0.59-2.87
		c0-1.49,0.6-2.76,1.8-3.81s2.84-1.58,4.93-1.58c2.55,0,4.71,0.85,6.48,2.55s2.93,3.91,3.46,6.62h2.64l-0.57-12.12h-2.75l-0.88,1.99
		c-0.97-0.54-2.22-0.99-3.77-1.38c-1.54-0.38-3.05-0.57-4.53-0.57c-3.85,0-6.92,1.07-9.22,3.21c-2.29,2.14-3.44,4.75-3.44,7.84
		c0,1.76,0.36,3.29,1.07,4.59c0.71,1.3,1.63,2.4,2.75,3.29c1.04,0.84,2.3,1.58,3.77,2.2c1.47,0.63,2.8,1.12,4,1.47
		c1.5,0.46,2.87,0.92,4.09,1.4s2.26,1,3.1,1.59c0.82,0.59,1.43,1.27,1.85,2.05s0.63,1.7,0.63,2.77c0,2.08-0.66,3.67-1.99,4.79
		c-1.33,1.12-3.21,1.67-5.66,1.67c-1.73,0-3.29-0.38-4.68-1.15c-1.39-0.77-2.58-1.71-3.58-2.84c-0.94-1.07-1.75-2.28-2.41-3.61
		c-0.66-1.33-1.1-2.5-1.3-3.49h-2.64l0.38,13.12h2.87l0.76-2.49c0.79,0.66,2.11,1.39,3.96,2.18c1.85,0.79,3.87,1.19,6.06,1.19
		c4.16,0,7.54-1.11,10.15-3.33c2.61-2.22,3.92-5.07,3.92-8.57C425.06,133.34,424.77,131.87,424.21,130.67z"/>
</g>
</svg>
